<?xml version="1.0" encoding="UTF-8"?>
<!DOCTYPE svg PUBLIC "-//W3C//DTD SVG 1.1//EN" "http://www.w3.org/Graphics/SVG/1.1/DTD/svg11.dtd">
<svg xmlns="http://www.w3.org/2000/svg" version="1.1" width="1080px" height="1080px" style="shape-rendering:geometricPrecision; text-rendering:geometricPrecision; image-rendering:optimizeQuality; fill-rule:evenodd; clip-rule:evenodd" xmlns:xlink="http://www.w3.org/1999/xlink">
<g><path style="opacity:0.985" fill="#000000" d="M 708.5,422.5 C 720.573,422.129 732.573,422.796 744.5,424.5C 744.5,436.833 744.5,449.167 744.5,461.5C 721.741,455.231 711.741,463.898 714.5,487.5C 724.167,487.5 733.833,487.5 743.5,487.5C 743.5,498.833 743.5,510.167 743.5,521.5C 733.833,521.5 724.167,521.5 714.5,521.5C 714.5,558.167 714.5,594.833 714.5,631.5C 698.167,631.5 681.833,631.5 665.5,631.5C 665.5,594.833 665.5,558.167 665.5,521.5C 659.167,521.5 652.833,521.5 646.5,521.5C 646.5,510.167 646.5,498.833 646.5,487.5C 652.833,487.5 659.167,487.5 665.5,487.5C 662.952,470.545 666.119,454.878 675,440.5C 684.197,430.654 695.364,424.654 708.5,422.5 Z"/></g>
<g><path style="opacity:0.977" fill="#000000" d="M 266.5,434.5 C 299.193,434.068 331.86,434.568 364.5,436C 409.133,442.305 428.299,467.805 422,512.5C 417.761,531.241 406.595,543.907 388.5,550.5C 404.635,577.111 419.969,604.111 434.5,631.5C 414.489,631.833 394.489,631.5 374.5,630.5C 361.414,607.996 348.58,585.329 336,562.5C 331.599,561.533 327.099,561.2 322.5,561.5C 322.5,584.833 322.5,608.167 322.5,631.5C 303.59,631.826 284.757,631.493 266,630.5C 265.496,564.018 265.662,498.685 266.5,434.5 Z M 322.5,477.5 C 330.84,477.334 339.173,477.5 347.5,478C 366.017,482.192 372.183,493.359 366,511.5C 362.613,517.622 357.446,521.455 350.5,523C 341.204,524.182 331.87,524.682 322.5,524.5C 322.5,508.833 322.5,493.167 322.5,477.5 Z"/></g>
<g><path style="opacity:0.979" fill="#000000" d="M 504.5,434.5 C 529.176,434.167 553.842,434.5 578.5,435.5C 599.167,500.5 619.833,565.5 640.5,630.5C 620.508,631.666 600.508,631.833 580.5,631C 576.74,619.219 573.073,607.386 569.5,595.5C 548.167,594.167 526.833,594.167 505.5,595.5C 501.852,607.425 498.519,619.425 495.5,631.5C 477.488,631.833 459.488,631.5 441.5,630.5C 462.908,565.278 483.908,499.945 504.5,434.5 Z M 537.5,483.5 C 544.714,507.176 551.714,531.009 558.5,555C 544.5,555.667 530.5,555.667 516.5,555C 523.598,531.206 530.598,507.372 537.5,483.5 Z"/></g>
<g><path style="opacity:0.96" fill="#000000" d="M 783.5,578.5 C 804.876,576.392 816.876,585.892 819.5,607C 816.303,626.783 804.636,635.783 784.5,634C 767.584,629.742 760.084,618.909 762,601.5C 764.651,589.48 771.817,581.814 783.5,578.5 Z"/></g>
</svg>
